<?xml version="1.0" encoding="UTF-8"?> <svg xmlns="http://www.w3.org/2000/svg" xmlns:xlink="http://www.w3.org/1999/xlink" version="1.1" id="Layer_1" x="0px" y="0px" viewBox="0 0 176 44.4" style="enable-background:new 0 0 176 44.4;" xml:space="preserve"> <style type="text/css"> .st0{fill:#ED3D2B;} .st1{fill:#51576D;} </style> <g> <g> <path class="st0" d="M26.5,20.2c0.4,0.4,0.8,1,1.1,1.5c0.1,0.1,0.1,0.2,0.2,0.3c1.1,2.1,1.3,4.3,0.8,6.6c0,0,0,0.1,0,0.1 c0,0.2-0.2,0.3-0.1,0.5c0.1,0.1,0.3,0.2,0.4,0.2c1.2,0.6,2.3,1.2,3.5,1.7c0.1,0,0.1,0,0.2,0.1c0.2,0.1,0.3,0.1,0.3-0.1 c0.1-0.4,0.4-0.7,0.6-1c1.2-1.7,2.8-2.7,4.9-3.1c2.3-0.4,4.4,0,6.3,1.4c0.9,0.7,1.6,1.5,2.1,2.5c0.9,1.8,1,3.6,0.3,5.4 c-0.5,1.4-1.4,2.5-2.6,3.4c-1.5,1-3.1,1.5-4.8,1.4c-2-0.1-3.8-0.8-5.2-2.2c-0.8-0.8-1.3-1.7-1.7-2.7c-0.3-0.9-0.4-1.8-0.3-2.8 c0-0.2-0.1-0.3-0.2-0.4c-0.9-0.4-1.8-0.9-2.7-1.3c-0.5-0.2-0.9-0.4-1.4-0.7c-0.2-0.1-0.3-0.1-0.4,0.1c-1.7,2.6-4.1,4-7.1,4.4 c-2.5,0.3-4.8-0.1-6.9-1.5c-0.2-0.1-0.3-0.3-0.5-0.3c-0.2,0-0.3,0.2-0.5,0.3c-0.6,0.6-1.3,1.1-1.9,1.7c-0.3,0.3-0.6,0.5-0.8,0.8 c-0.3,0.3-0.3,0.3-0.1,0.6c0.5,0.9,0.7,1.8,0.6,2.7c-0.1,1.4-0.8,2.5-1.8,3.3c-1.1,0.8-2.3,1.2-3.6,1.1c-1.8-0.1-3.2-0.9-4.2-2.5 c-0.8-1.4-0.9-2.8-0.3-4.3c0.6-1.5,1.8-2.4,3.4-2.8c1.4-0.4,2.8-0.2,4.1,0.6c0.2,0.1,0.3,0.1,0.4,0c0.7-0.7,1.4-1.3,2.2-1.9 c0.3-0.3,0.6-0.5,0.8-0.8c0.1-0.1,0.2-0.2,0-0.4c-0.5-0.5-0.9-1.1-1.3-1.8c0-0.1-0.1-0.1-0.1-0.2c-0.8-1.6-1.1-3.3-0.9-5.1 c0.1-1,0.4-2,0.9-3c0.5-1,1.2-1.9,2-2.6c0.1-0.1,0.1-0.2,0.2-0.2c0.1-0.1,0.2-0.2,0.1-0.4c-0.5-0.9-1-1.8-1.5-2.7 c0-0.1-0.1-0.1-0.1-0.2c-0.7-1.3-1.4-2.6-2.1-3.9c0,0,0,0,0,0c-0.1-0.2-0.2-0.5-0.4-0.6c-0.2-0.1-0.5,0-0.7,0.1 c-1.7,0.2-3.3-0.2-4.7-1.2C2.6,10.1,2.3,9.8,2,9.5c-1.5-1.7-1.7-4-0.8-5.9c0.9-1.7,2.3-2.8,4.2-3.2c1.7-0.3,3.3,0,4.8,1 c1.1,0.7,1.8,1.7,2.2,3c0.2,0.7,0.3,1.4,0.2,2.2c-0.2,1.3-0.7,2.4-1.7,3.3c-0.2,0.2-0.5,0.4-0.7,0.6c-0.1,0.1-0.1,0.2,0,0.3 c0.5,0.9,1,1.7,1.4,2.6c0.8,1.5,1.6,3,2.4,4.5c0.1,0.2,0.2,0.2,0.4,0.1c2.8-1.4,5.7-1.4,8.7-0.3c0.6,0.3,1.3,0.6,1.8,1 c0.2,0.1,0.3,0.1,0.5,0c0.3-0.3,0.7-0.6,1-0.9c1.3-1.1,2.5-2.3,3.8-3.4c0.9-0.8,1.8-1.6,2.7-2.5c0.2-0.2,0.4-0.4,0.6-0.5 c0.1-0.1,0.2-0.2,0-0.4c-0.6-0.7-0.9-1.6-1.1-2.4c-0.2-0.7-0.2-1.4-0.2-2.2C32.4,5,33,3.7,33.9,2.6c1.2-1.3,2.7-2.2,4.5-2.5 c1.9-0.3,3.7,0,5.3,1c0.8,0.5,1.5,1.1,2.1,1.9c0.8,1,1.2,2.2,1.3,3.5c0.1,1.6-0.3,3.1-1.3,4.4c-0.9,1.3-2.1,2.1-3.5,2.6 c-1.9,0.7-3.8,0.6-5.6-0.1c-0.5-0.2-1-0.5-1.5-0.8c-0.2-0.1-0.3-0.1-0.4,0c-0.3,0.3-0.6,0.5-0.9,0.8c-1.2,1.1-2.4,2.2-3.6,3.3 c-1.2,1-2.3,2.1-3.5,3.1C26.7,20,26.6,20,26.5,20.2L26.5,20.2z M39.6,12.2c0.5,0,1,0,1.4-0.1c1.5-0.4,2.8-1.2,3.5-2.5 c0.6-1.1,0.9-2.3,0.6-3.6c-0.3-1.3-1.1-2.4-2.2-3.2c-1.3-0.9-2.7-1.2-4.3-0.9c-1.8,0.3-3.1,1.3-3.9,2.9C33.9,6.4,34,8.1,35,9.7 C36.1,11.4,37.7,12.1,39.6,12.2L39.6,12.2z M39.8,39.1c0.5,0,1.1-0.1,1.6-0.2c1.5-0.4,2.7-1.4,3.4-2.8c0.4-0.9,0.6-1.9,0.4-2.9 c-0.2-1.1-0.7-2-1.4-2.7c-1.3-1.2-2.9-1.8-4.7-1.5c-1.9,0.3-3.4,1.3-4.2,3.1c-0.6,1.4-0.6,2.8,0.2,4.2C36,38.1,37.7,39,39.8,39.1z M6.5,9.8c1,0,1.9-0.2,2.7-0.9c1.1-0.9,1.6-2,1.4-3.5c-0.2-1.8-1.9-3.2-3.7-3.2c-1.7-0.1-3,0.6-3.9,2.1c-0.5,1-0.6,2-0.1,3 C3.6,8.9,4.9,9.7,6.5,9.8L6.5,9.8z M5.3,42.5c0.8,0,1.6-0.4,2.3-1c1.1-1.1,1.2-3.5-0.7-4.6c-1.2-0.7-2.8-0.7-4,0.4 c-0.9,0.8-1.2,1.9-0.8,3C2.6,41.8,3.8,42.5,5.3,42.5L5.3,42.5z"></path> <path class="st1" d="M35,26.8c-1.8,0-3.2-0.7-4.3-2.1c-0.8-1.1-1.1-2.4-0.8-3.8c0.6-2,2.1-3.3,4.1-3.7c1.4-0.2,2.7,0,3.9,0.8 c2.1,1.4,2.8,3.9,1.7,6.1c-0.7,1.5-2,2.3-3.6,2.7C35.7,26.8,35.4,26.8,35,26.8L35,26.8z M35.3,25c0.6,0,1.3-0.2,1.9-0.8 c1.4-1.2,1.5-3.1,0.2-4.4c-0.9-0.9-2.1-1.2-3.4-0.7c-1.6,0.5-2.5,2.1-2,3.8C32.4,24.1,33.6,25,35.3,25L35.3,25z"></path> <path class="st1" d="M19.7,5.9c1.6,0,3.2,0.9,3.9,2.4c0.4,0.9,0.5,1.8,0.2,2.6c-0.4,1.2-1.2,2.1-2.5,2.6c-1.4,0.5-2.8,0.4-4.1-0.5 c-0.5-0.3-0.9-0.7-1.1-1.2c-0.4-0.7-0.7-1.5-0.5-2.4c0.2-1.1,0.7-2,1.7-2.7C18,6.1,18.8,5.9,19.7,5.9L19.7,5.9z M19.7,7.7 c0,0-0.2,0-0.3,0c-1.3,0.2-2.2,1.4-1.8,2.7c0.3,0.9,0.9,1.3,1.8,1.5c1.3,0.2,2.6-0.7,2.5-2.2C21.9,8.5,20.9,7.7,19.7,7.7L19.7,7.7 z"></path> <path class="st1" d="M5,18.4c0,1.3-1.1,2.3-2.4,2.3c-1.4,0-2.4-1-2.4-2.3c0-1.3,1.1-2.3,2.4-2.3C3.8,16.1,5.1,17.1,5,18.4L5,18.4z M3.6,18.4c0-0.5-0.4-0.9-1-0.9c-0.5,0-1,0.4-1,0.9c0,0.5,0.4,0.9,1,0.9C3.1,19.3,3.6,18.9,3.6,18.4L3.6,18.4z"></path> </g> <g> <g> <path class="st1" d="M68.3,1.4c-1.5-0.6-3.2-1-5.3-1h-9.5v23.1h4.3v-6.7H63c2,0,3.8-0.3,5.3-1c1.5-0.7,2.6-1.6,3.4-2.8 c0.8-1.2,1.2-2.7,1.2-4.4s-0.4-3.2-1.2-4.4S69.7,2.1,68.3,1.4L68.3,1.4z M67.1,12c-1,0.8-2.4,1.2-4.3,1.2h-5V4.1h5 c1.9,0,3.3,0.4,4.3,1.2c1,0.8,1.4,1.9,1.4,3.4S68,11.2,67.1,12L67.1,12z"></path> <path class="st1" d="M79.2,8.5V5.9h-3.9v17.6h4.1V15c0-1.8,0.5-3.2,1.4-4.1c0.9-0.9,2.2-1.4,3.8-1.4c0.1,0,0.3,0,0.4,0 c0.2,0,0.3,0,0.5,0V5.7c-1.6,0-3,0.3-4.2,0.9C80.4,7.1,79.7,7.7,79.2,8.5L79.2,8.5z"></path> <path class="st1" d="M103.5,10c-0.8-1.3-1.9-2.4-3.3-3.2s-3-1.2-4.9-1.2s-3.4,0.4-4.8,1.2C89.1,7.6,88,8.7,87.2,10 c-0.8,1.3-1.2,2.9-1.2,4.7s0.4,3.3,1.2,4.6c0.8,1.4,1.9,2.4,3.3,3.2c1.4,0.8,3,1.2,4.8,1.2s3.4-0.4,4.8-1.2 c1.4-0.8,2.5-1.8,3.3-3.2c0.8-1.4,1.2-2.9,1.2-4.7S104.3,11.4,103.5,10L103.5,10z M99.9,17.6c-0.5,0.8-1.1,1.5-1.9,1.9 c-0.8,0.5-1.7,0.7-2.7,0.7s-1.8-0.2-2.6-0.7c-0.8-0.5-1.4-1.1-1.9-1.9c-0.5-0.8-0.7-1.8-0.7-2.9s0.2-2.1,0.7-2.9 c0.5-0.8,1.1-1.5,1.9-1.9c0.8-0.5,1.7-0.7,2.7-0.7s1.9,0.2,2.7,0.7c0.8,0.5,1.4,1.1,1.9,1.9c0.4,0.8,0.7,1.8,0.7,2.9 S100.3,16.8,99.9,17.6L99.9,17.6z"></path> </g> <g> <path class="st0" d="M114.8,7.2c0.6-0.6,1.2-1,2-1.3s1.7-0.5,2.6-0.5c1.1,0,2.1,0.2,3,0.7c0.9,0.5,1.7,1.1,2.5,2l4.2-3.8 c-1.1-1.4-2.5-2.5-4.2-3.2c-1.7-0.7-3.6-1.1-5.7-1.1c-1.8,0-3.5,0.3-5,0.9c-1.5,0.6-2.9,1.4-4,2.5c-1.1,1.1-2,2.3-2.7,3.8 c-0.6,1.5-1,3.1-1,4.8s0.3,3.4,1,4.8c0.6,1.5,1.5,2.7,2.7,3.8c1.1,1.1,2.5,1.9,4,2.5c1.5,0.6,3.2,0.9,5,0.9c2.1,0,4-0.4,5.7-1.1 s3.1-1.8,4.2-3.3l-4.2-3.8c-0.7,0.9-1.6,1.6-2.5,2c-0.9,0.5-1.9,0.7-3,0.7c-0.9,0-1.8-0.2-2.6-0.5s-1.5-0.8-2-1.3 c-0.6-0.6-1-1.3-1.3-2.1c-0.3-0.8-0.5-1.7-0.5-2.7s0.2-1.9,0.5-2.7C113.8,8.5,114.3,7.8,114.8,7.2L114.8,7.2z"></path> <polygon class="st0" points="131.3,23.5 137.8,23.5 137.8,15.6 148,15.6 148,10.6 137.8,10.6 137.8,5.5 149.4,5.5 149.4,0.5 131.3,0.5 "></polygon> <path class="st0" d="M175,7.2c-0.6-1.4-1.5-2.7-2.7-3.8c-1.1-1.1-2.5-1.9-4.1-2.5C166.7,0.3,165,0,163.2,0s-3.5,0.3-5.1,0.9 c-1.6,0.6-2.9,1.4-4.1,2.5s-2,2.4-2.7,3.8c-0.6,1.4-1,3-1,4.7s0.3,3.3,1,4.8c0.6,1.5,1.5,2.7,2.7,3.8c1.1,1.1,2.5,1.9,4.1,2.5 c1.6,0.6,3.3,0.9,5.1,0.9s3.5-0.3,5.1-0.9c1.6-0.6,2.9-1.4,4.1-2.5c1.2-1.1,2-2.3,2.7-3.8c0.6-1.5,1-3.1,1-4.8S175.7,8.6,175,7.2 L175,7.2z M168.9,14.7c-0.3,0.8-0.8,1.5-1.3,2.1c-0.6,0.6-1.2,1-2,1.3c-0.8,0.3-1.6,0.5-2.5,0.5c-0.9,0-1.7-0.2-2.5-0.5 c-0.8-0.3-1.4-0.8-2-1.3c-0.6-0.6-1-1.3-1.3-2.1c-0.3-0.8-0.5-1.7-0.5-2.7s0.2-1.9,0.5-2.7c0.3-0.8,0.7-1.5,1.3-2.1 c0.6-0.6,1.2-1,2-1.3c0.8-0.3,1.6-0.5,2.5-0.5c0.9,0,1.7,0.2,2.5,0.5c0.8,0.3,1.4,0.8,2,1.3c0.6,0.6,1,1.3,1.3,2.1 c0.3,0.8,0.5,1.7,0.5,2.7S169.3,13.9,168.9,14.7z"></path> </g> </g> <g> <path class="st0" d="M58.6,28.5c-0.5-0.2-1.1-0.3-1.9-0.3h-3.6V36h2.2V34h1.4c0.7,0,1.3-0.1,1.9-0.4c0.5-0.2,0.9-0.6,1.2-1 c0.3-0.4,0.4-1,0.4-1.6c0-0.6-0.1-1.1-0.4-1.5C59.5,29.1,59.1,28.7,58.6,28.5L58.6,28.5z M57.6,31.9c-0.2,0.2-0.6,0.3-1,0.3h-1.2 v-2.3h1.2c0.5,0,0.8,0.1,1,0.3c0.2,0.2,0.3,0.5,0.3,0.8C58,31.4,57.9,31.7,57.6,31.9z"></path> <path class="st0" d="M64.1,28.1L60.6,36h2.3l0.6-1.5h3.3l0.6,1.5h2.3l-3.5-7.9L64.1,28.1L64.1,28.1z M64.2,32.8l1-2.5l1,2.5H64.2 L64.2,32.8z"></path> <path class="st0" d="M77.8,32.6c0.3-0.4,0.4-0.9,0.4-1.6c0-0.6-0.1-1.1-0.4-1.5c-0.3-0.4-0.7-0.8-1.2-1c-0.5-0.2-1.1-0.3-1.9-0.3 h-3.6V36h2.2v-2.1h1.2L76,36h2.4l-1.7-2.5C77.2,33.3,77.5,33,77.8,32.6L77.8,32.6z M75.6,30.2c0.2,0.2,0.3,0.5,0.3,0.8 c0,0.4-0.1,0.7-0.3,0.9c-0.2,0.2-0.6,0.3-1,0.3h-1.2v-2.3h1.2C75,29.9,75.4,30,75.6,30.2L75.6,30.2z"></path> <polygon class="st0" points="79.3,29.9 81.7,29.9 81.7,36 83.9,36 83.9,29.9 86.3,29.9 86.3,28.1 79.3,28.1 "></polygon> <polygon class="st0" points="93.1,32.3 89.7,28.1 87.8,28.1 87.8,36 90,36 90,31.8 93.5,36 95.3,36 95.3,28.1 93.1,28.1 "></polygon> <polygon class="st0" points="99.8,32.9 103.3,32.9 103.3,31.2 99.8,31.2 99.8,29.9 103.8,29.9 103.8,28.1 97.6,28.1 97.6,36 103.9,36 103.9,34.3 99.8,34.3 "></polygon> <path class="st0" d="M112.5,32.6c0.3-0.4,0.4-0.9,0.4-1.6c0-0.6-0.1-1.1-0.4-1.5c-0.3-0.4-0.7-0.8-1.2-1c-0.5-0.2-1.1-0.3-1.9-0.3 h-3.6V36h2.2v-2.1h1.2l1.4,2.1h2.4l-1.7-2.5C111.9,33.3,112.2,33,112.5,32.6L112.5,32.6z M110.3,30.2c0.2,0.2,0.3,0.5,0.3,0.8 c0,0.4-0.1,0.7-0.3,0.9c-0.2,0.2-0.6,0.3-1,0.3h-1.2v-2.3h1.2C109.7,29.9,110.1,30,110.3,30.2L110.3,30.2z"></path> <path class="st0" d="M120.8,32.6c-0.2-0.3-0.4-0.5-0.6-0.7c-0.3-0.2-0.6-0.3-0.9-0.4c-0.3-0.1-0.6-0.2-1-0.3 c-0.3-0.1-0.6-0.1-0.9-0.2c-0.3-0.1-0.5-0.1-0.6-0.2c-0.2-0.1-0.2-0.2-0.2-0.4c0-0.1,0-0.2,0.1-0.3c0.1-0.1,0.2-0.2,0.4-0.3 c0.2-0.1,0.4-0.1,0.7-0.1c0.3,0,0.7,0,1.1,0.1c0.4,0.1,0.7,0.3,1.1,0.5l0.7-1.6c-0.4-0.2-0.8-0.4-1.3-0.5c-0.5-0.1-1-0.2-1.5-0.2 c-0.8,0-1.4,0.1-1.9,0.3c-0.5,0.2-0.9,0.5-1.2,0.9c-0.3,0.4-0.4,0.8-0.4,1.3c0,0.4,0.1,0.8,0.2,1c0.2,0.3,0.4,0.5,0.6,0.7 c0.3,0.2,0.6,0.3,0.9,0.4c0.3,0.1,0.6,0.2,1,0.3c0.3,0.1,0.6,0.1,0.9,0.2c0.3,0.1,0.5,0.2,0.6,0.3c0.2,0.1,0.2,0.2,0.2,0.4 c0,0.1,0,0.3-0.1,0.3c-0.1,0.1-0.2,0.2-0.4,0.2c-0.2,0.1-0.4,0.1-0.7,0.1c-0.5,0-0.9-0.1-1.4-0.2s-0.9-0.3-1.2-0.6l-0.7,1.7 c0.4,0.2,0.8,0.5,1.4,0.6c0.6,0.2,1.2,0.2,1.9,0.2c0.8,0,1.4-0.1,1.9-0.3c0.5-0.2,0.9-0.5,1.2-0.9c0.3-0.4,0.4-0.8,0.4-1.3 C121.1,33.2,121,32.9,120.8,32.6L120.8,32.6z"></path> </g> <g> <polygon class="st1" points="53,44.3 53.4,44.3 53.4,42.6 55.5,42.6 55.5,42.2 53.4,42.2 53.4,40.6 55.8,40.6 55.8,40.2 53,40.2 "></polygon> <rect x="57" y="40.2" class="st1" width="0.4" height="4.1"></rect> <polygon class="st1" points="62.1,43.5 59.5,40.2 59.1,40.2 59.1,44.3 59.6,44.3 59.6,41 62.2,44.3 62.5,44.3 62.5,40.2 62.1,40.2 "></polygon> <path class="st1" d="M65.4,40.2l-1.9,4.1H64l0.5-1.1h2.3l0.5,1.1h0.5l-1.9-4.1H65.4L65.4,40.2z M64.7,42.9l1-2.2l1,2.2H64.7 L64.7,42.9z"></path> <polygon class="st1" points="71.7,43.5 69.1,40.2 68.7,40.2 68.7,44.3 69.2,44.3 69.2,41 71.8,44.3 72.1,44.3 72.1,40.2 71.7,40.2 "></polygon> <path class="st1" d="M74.4,41.1c0.2-0.2,0.3-0.3,0.5-0.4c0.2-0.1,0.4-0.1,0.7-0.1s0.5,0,0.7,0.1c0.2,0.1,0.4,0.2,0.6,0.4l0.3-0.3 c-0.2-0.2-0.4-0.3-0.7-0.4c-0.3-0.1-0.5-0.1-0.8-0.1s-0.6,0.1-0.8,0.2c-0.3,0.1-0.5,0.2-0.7,0.4c-0.2,0.2-0.3,0.4-0.4,0.7 s-0.2,0.5-0.2,0.8s0.1,0.6,0.2,0.8c0.1,0.3,0.3,0.5,0.4,0.7c0.2,0.2,0.4,0.3,0.7,0.4c0.3,0.1,0.5,0.2,0.8,0.2s0.6-0.1,0.8-0.2 c0.3-0.1,0.5-0.3,0.7-0.4l-0.3-0.3c-0.2,0.2-0.4,0.3-0.6,0.4c-0.2,0.1-0.4,0.1-0.7,0.1c-0.2,0-0.5,0-0.7-0.1 c-0.2-0.1-0.4-0.2-0.5-0.4c-0.2-0.2-0.3-0.3-0.4-0.5c-0.1-0.2-0.1-0.4-0.1-0.7c0-0.2,0-0.5,0.1-0.7S74.2,41.2,74.4,41.1L74.4,41.1 z"></path> <rect x="78.4" y="40.2" class="st1" width="0.4" height="4.1"></rect> <path class="st1" d="M81.7,40.2l-1.9,4.1h0.4l0.5-1.1H83l0.5,1.1H84l-1.9-4.1H81.7L81.7,40.2z M80.9,42.9l1-2.2l1,2.2H80.9 L80.9,42.9z"></path> <polygon class="st1" points="85.4,40.2 85,40.2 85,44.3 87.7,44.3 87.7,43.9 85.4,43.9 "></polygon> <polygon class="st1" points="92.8,43.3 91,40.2 90.6,40.2 90.6,44.3 91,44.3 91,41.1 92.6,43.8 92.8,43.8 94.4,41 94.4,44.3 94.9,44.3 94.9,40.2 94.5,40.2 "></polygon> <path class="st1" d="M97.7,40.2l-1.9,4.1h0.4l0.5-1.1h2.3l0.5,1.1h0.5l-1.9-4.1H97.7L97.7,40.2z M97,42.9l1-2.2l1,2.2H97L97,42.9z "></path> <polygon class="st1" points="104,43.5 101.4,40.2 101.1,40.2 101.1,44.3 101.5,44.3 101.5,41 104.1,44.3 104.5,44.3 104.5,40.2 104,40.2 "></polygon> <path class="st1" d="M107.3,40.2l-1.9,4.1h0.4l0.5-1.1h2.3l0.5,1.1h0.5l-1.9-4.1H107.3L107.3,40.2z M106.6,42.9l1-2.2l1,2.2H106.6 L106.6,42.9z"></path> <path class="st1" d="M111.2,41.1c0.2-0.2,0.3-0.3,0.6-0.4c0.2-0.1,0.4-0.1,0.7-0.1c0.2,0,0.5,0,0.7,0.1c0.2,0.1,0.4,0.2,0.6,0.4 l0.3-0.3c-0.2-0.2-0.4-0.3-0.7-0.4c-0.3-0.1-0.5-0.1-0.9-0.1s-0.6,0.1-0.9,0.2c-0.3,0.1-0.5,0.2-0.7,0.4c-0.2,0.2-0.3,0.4-0.5,0.7 c-0.1,0.3-0.2,0.5-0.2,0.8s0.1,0.6,0.2,0.8c0.1,0.3,0.3,0.5,0.4,0.7c0.2,0.2,0.4,0.3,0.7,0.4s0.5,0.2,0.9,0.2c0.3,0,0.6,0,0.8-0.1 c0.3-0.1,0.5-0.2,0.7-0.4v-1.6h-0.4v1.4c-0.1,0.1-0.3,0.2-0.4,0.2c-0.2,0.1-0.4,0.1-0.7,0.1c-0.2,0-0.5,0-0.7-0.1 c-0.2-0.1-0.4-0.2-0.6-0.4c-0.2-0.2-0.3-0.3-0.4-0.5c-0.1-0.2-0.1-0.4-0.1-0.7c0-0.2,0-0.5,0.1-0.7S111,41.2,111.2,41.1 L111.2,41.1z"></path> <polygon class="st1" points="115.9,42.4 118,42.4 118,42.1 115.9,42.1 115.9,40.6 118.2,40.6 118.2,40.2 115.4,40.2 115.4,44.3 118.3,44.3 118.3,43.9 115.9,43.9 "></polygon> <polygon class="st1" points="121.8,43.3 120,40.2 119.7,40.2 119.7,44.3 120.1,44.3 120.1,41.1 121.7,43.8 121.9,43.8 123.5,41 123.5,44.3 123.9,44.3 123.9,40.2 123.6,40.2 "></polygon> <polygon class="st1" points="126,42.4 128.1,42.4 128.1,42.1 126,42.1 126,40.6 128.4,40.6 128.4,40.2 125.6,40.2 125.6,44.3 128.5,44.3 128.5,43.9 126,43.9 "></polygon> <polygon class="st1" points="132.8,43.5 130.2,40.2 129.8,40.2 129.8,44.3 130.3,44.3 130.3,41 132.9,44.3 133.2,44.3 133.2,40.2 132.8,40.2 "></polygon> <polygon class="st1" points="134.3,40.6 135.7,40.6 135.7,44.3 136.1,44.3 136.1,40.6 137.6,40.6 137.6,40.2 134.3,40.2 "></polygon> <path class="st1" d="M143.4,42.6l-0.3-0.1c-0.1,0.3-0.2,0.6-0.3,0.8l-1.1-1.1c0.2-0.1,0.3-0.2,0.4-0.3c0.2-0.1,0.3-0.2,0.4-0.4 c0.1-0.1,0.1-0.3,0.1-0.4c0-0.2,0-0.3-0.1-0.4s-0.2-0.2-0.3-0.3c-0.1-0.1-0.3-0.1-0.5-0.1c-0.2,0-0.4,0-0.5,0.1 c-0.2,0.1-0.3,0.2-0.4,0.3c-0.1,0.1-0.1,0.3-0.1,0.5c0,0.1,0,0.2,0,0.3c0,0.1,0.1,0.2,0.2,0.3c0.1,0.1,0.2,0.2,0.3,0.4 c-0.2,0.1-0.4,0.2-0.5,0.4c-0.2,0.1-0.3,0.3-0.4,0.4c-0.1,0.1-0.1,0.3-0.1,0.5c0,0.2,0.1,0.4,0.2,0.5s0.3,0.3,0.5,0.4 s0.4,0.1,0.7,0.1c0.3,0,0.6-0.1,0.9-0.2c0.2-0.1,0.3-0.2,0.5-0.4l0.6,0.6l0.2-0.3l-0.6-0.6C143.2,43.2,143.3,42.9,143.4,42.6 L143.4,42.6z M141,41.1c0-0.2,0.1-0.3,0.2-0.4c0.1-0.1,0.3-0.2,0.5-0.2c0.2,0,0.3,0,0.4,0.1c0.1,0.1,0.2,0.2,0.2,0.4 c0,0.1,0,0.2-0.1,0.3c-0.1,0.1-0.2,0.2-0.3,0.3c-0.1,0.1-0.2,0.2-0.4,0.3c-0.1-0.1-0.2-0.2-0.3-0.3c-0.1-0.1-0.1-0.2-0.1-0.2 C141,41.2,141,41.1,141,41.1L141,41.1z M142.2,43.8c-0.2,0.1-0.5,0.2-0.7,0.2c-0.2,0-0.4,0-0.5-0.1c-0.1-0.1-0.3-0.1-0.3-0.3 c-0.1-0.1-0.1-0.2-0.1-0.4c0-0.1,0-0.2,0.1-0.4c0.1-0.1,0.2-0.2,0.3-0.3c0.1-0.1,0.3-0.2,0.5-0.3l1.2,1.3 C142.5,43.7,142.4,43.8,142.2,43.8L142.2,43.8z"></path> <path class="st1" d="M147.2,41.1c0.2-0.2,0.3-0.3,0.6-0.4c0.2-0.1,0.4-0.1,0.7-0.1c0.2,0,0.5,0,0.7,0.1c0.2,0.1,0.4,0.2,0.6,0.4 l0.3-0.3c-0.2-0.2-0.4-0.3-0.7-0.4c-0.3-0.1-0.5-0.1-0.9-0.1c-0.3,0-0.6,0.1-0.9,0.2s-0.5,0.2-0.7,0.4c-0.2,0.2-0.3,0.4-0.5,0.7 s-0.2,0.5-0.2,0.8s0.1,0.6,0.2,0.8c0.1,0.3,0.3,0.5,0.4,0.7c0.2,0.2,0.4,0.3,0.7,0.4c0.3,0.1,0.5,0.2,0.9,0.2c0.3,0,0.6,0,0.8-0.1 c0.3-0.1,0.5-0.2,0.7-0.4v-1.6h-0.4v1.4c-0.1,0.1-0.3,0.2-0.4,0.2c-0.2,0.1-0.4,0.1-0.7,0.1c-0.2,0-0.5,0-0.7-0.1 c-0.2-0.1-0.4-0.2-0.6-0.4c-0.2-0.2-0.3-0.3-0.4-0.5c-0.1-0.2-0.1-0.4-0.1-0.7c0-0.2,0-0.5,0.1-0.7S147,41.2,147.2,41.1 L147.2,41.1z"></path> <path class="st1" d="M153.9,42.8c0.2-0.1,0.4-0.3,0.6-0.5c0.1-0.2,0.2-0.5,0.2-0.7c0-0.3-0.1-0.5-0.2-0.8 c-0.1-0.2-0.3-0.4-0.6-0.5c-0.2-0.1-0.5-0.2-0.9-0.2h-1.5v4.1h0.4V43h1.1c0.1,0,0.2,0,0.3,0l0.9,1.3h0.5l-1-1.4 C153.8,42.9,153.8,42.9,153.9,42.8L153.9,42.8z M153,42.6h-1.1v-2h1.1c0.4,0,0.7,0.1,0.9,0.3s0.3,0.4,0.3,0.8 c0,0.3-0.1,0.6-0.3,0.8S153.4,42.6,153,42.6L153,42.6z"></path> <path class="st1" d="M159.3,40.8c-0.2-0.2-0.4-0.3-0.7-0.4c-0.3-0.1-0.5-0.2-0.8-0.2c-0.3,0-0.6,0.1-0.9,0.2 c-0.3,0.1-0.5,0.2-0.7,0.4c-0.2,0.2-0.3,0.4-0.4,0.7s-0.2,0.5-0.2,0.8s0.1,0.6,0.2,0.8s0.3,0.5,0.4,0.7c0.2,0.2,0.4,0.3,0.7,0.4 c0.3,0.1,0.5,0.2,0.9,0.2s0.6-0.1,0.8-0.2s0.5-0.2,0.7-0.4c0.2-0.2,0.3-0.4,0.4-0.7c0.1-0.3,0.2-0.5,0.2-0.8s-0.1-0.6-0.2-0.8 C159.6,41.2,159.5,41,159.3,40.8z M159.4,42.9c-0.1,0.2-0.2,0.4-0.4,0.5c-0.2,0.2-0.3,0.3-0.5,0.4c-0.2,0.1-0.4,0.1-0.7,0.1 s-0.5,0-0.7-0.1c-0.2-0.1-0.4-0.2-0.5-0.4c-0.2-0.2-0.3-0.3-0.4-0.5c-0.1-0.2-0.1-0.4-0.1-0.7s0-0.5,0.1-0.7s0.2-0.4,0.4-0.5 c0.2-0.2,0.3-0.3,0.5-0.4c0.2-0.1,0.4-0.1,0.7-0.1s0.5,0,0.7,0.1c0.2,0.1,0.4,0.2,0.5,0.4c0.2,0.2,0.3,0.3,0.4,0.5 c0.1,0.2,0.1,0.4,0.1,0.7C159.5,42.5,159.4,42.7,159.4,42.9z"></path> <polygon class="st1" points="165.1,43.8 163.9,40.2 163.5,40.2 162.3,43.7 161.1,40.2 160.7,40.2 162,44.3 162.5,44.3 163.7,40.8 164.9,44.3 165.3,44.3 166.7,40.2 166.3,40.2 "></polygon> <polygon class="st1" points="167.3,40.6 168.7,40.6 168.7,44.3 169.1,44.3 169.1,40.6 170.5,40.6 170.5,40.2 167.3,40.2 "></polygon> <polygon class="st1" points="174.6,40.2 174.6,42 172,42 172,40.2 171.6,40.2 171.6,44.3 172,44.3 172,42.4 174.6,42.4 174.6,44.3 175,44.3 175,40.2 "></polygon> </g> </g> </svg> 