<?xml version="1.0" standalone="no"?>
<!DOCTYPE svg PUBLIC "-//W3C//DTD SVG 1.1//EN" "http://www.w3.org/Graphics/SVG/1.1/DTD/svg11.dtd">
<svg xmlns="http://www.w3.org/2000/svg" id="Layer_1" data-name="Layer 1" viewBox="0 0 620.79 482" width="620.7899780273438" height="482">
  <defs>
    <style>
      .cls-1, .cls-2, .cls-3 {
        fill-rule: evenodd;
      }

      .cls-2 {
        fill: #60686e;
      }

      .cls-3 {
        fill: #ff6b03;
      }

      .cls-4 {
        fill: #070a0f;
      }
    </style>
  </defs>
  <path class="cls-1" d="M310.76,120.65c-1.26.85-.62.42,0,0"/>
  <path class="cls-1" d="M310.88,122.13c-.32-.23-.64-.46-.97-.69.32.23.65.46.97.69"/>
  <path class="cls-3" d="M258.04,144.43c13.22-13.22,31.42-21.46,51.54-21.68h.82s.82,0,.82,0c20.12.22,38.32,8.46,51.54,21.68,13.4,13.4,21.69,31.91,21.69,52.35,0,17.51-6.08,33.6-16.24,46.28l.05-.05c10.84-10.84,18.66-24.72,22.06-40.25l-.07.34,12.08-3.08c.78-4.84,1.19-9.81,1.19-14.87s-.44-10.36-1.27-15.36l-12.13-3.19.19.84c-2.09-9.49-5.83-18.36-10.91-26.3l.15.24,6.37-10.72c-5.94-8.21-13.18-15.42-21.43-21.32l-10.84,6.33.5.31c-7.9-5-16.71-8.69-26.13-10.76l.34.07-3.08-12.08c-4.84-.78-9.81-1.19-14.87-1.19s-10.36.44-15.36,1.27l-3.19,12.13.84-.19c-9.49,2.09-18.36,5.83-26.3,10.91l.24-.15-10.72-6.37c-8.21,5.94-15.42,13.18-21.32,21.43l6.33,10.84.31-.5c-5,7.9-8.69,16.71-10.76,26.13l.07-.34-12.08,3.08c-.78,4.84-1.19,9.81-1.19,14.87s.44,10.36,1.27,15.36l12.13,3.19c3.51,15.15,11.23,28.68,21.85,39.31l.05.05c-10.16-12.68-16.24-28.76-16.24-46.28,0-20.45,8.29-38.96,21.69-52.35"/>
  <path class="cls-2" d="M299.78,182.04c0,5.86,4.75,10.61,10.61,10.61s10.62-4.75,10.62-10.61-4.76-10.61-10.62-10.61-10.61,4.75-10.61,10.61M292.68,220.08v15.72c.21,0,.42,0,.63,0,2.21.02,4.4.13,6.61.06,4.59-.14,9.12-1.19,13.73-1.38,5.1-.21,9.69.48,14.47,1.96v-23.49c0-9.75-7.97-17.72-17.72-17.72s-17.72,7.97-17.72,17.72v7.13Z"/>
  <path class="cls-3" d="M352.59,226.63v-11.43c0-8.48-6.94-15.41-15.41-15.41-3.15,0-6.08.96-8.53,2.59,1.82,3.11,2.86,6.73,2.86,10.58v24.66c1.89.71,4.04,1.5,5.63,1.66.59.06,1.12.02,1.69-.15,4.43-1.28,9.28-6.46,12.03-10.09.6-.79,1.18-1.6,1.73-2.42M274.38,188.3c0,5.1,4.14,9.23,9.23,9.23s9.24-4.14,9.24-9.23-4.14-9.23-9.24-9.23-9.23,4.13-9.23,9.23ZM268.2,233.23v.24c4.29.38,7.88,3.12,11.6,5.69.37.25.78.55,1.23.86,1.85-2.45,5.04-3.57,8.25-4v-23.07c0-3.85,1.04-7.46,2.86-10.58-2.45-1.64-5.38-2.59-8.53-2.59-8.48,0-15.41,6.94-15.41,15.41v18.03ZM327.94,188.3c0,5.1,4.14,9.23,9.23,9.23s9.24-4.14,9.24-9.23-4.14-9.23-9.24-9.23-9.23,4.13-9.23,9.23Z"/>
  <path class="cls-2" d="M273.16,152.4c10.06-8.22,22.9-13.16,36.89-13.21l7.08.4c26.71,3.12,47.93,24.17,51.31,50.8,2.06,15.37-2.2,30.7-11.64,43.16-4.31,5.69-10.1,11.11-15.9,12.75-8.08,2.39-13.4-4.93-26.95-4.37-4.47.18-8.91,1.23-13.81,1.38-2.62.08-4.2-.03-6.92-.06-5.32-.06-9.78,1.59-2.59,4.02,6.08,2.05,14.32-.44,17.64,5.95-4.4.25-7.73.5-10.43.61-9.09.39-10.98-.73-22.28-8.54-4.73-3.27-6.96-5.01-9.68-4.21-2.07.62-1.69.9-.79,2.59,5.61,10.55,23,18.63,31.28,20.16,15.35,2.84,29.87.92,42.32-4.73,7.13-3.4,13.3-7.55,19.22-13.47,26.33-26.33,26.33-69.01,0-95.33-32.3-32.3-86.29-23.61-107.32,16.22l-.07.14c-6.04,11.58-8.4,27.47-7.01,40.88.8,5.59,2.3,11.11,4.51,16.4,2.39,5.67,5.66,10.97,9.52,15.76-17.89-32.06-8.95-67.23,15.61-87.31"/>
  <path class="cls-4" d="M482.38,344.01h8.02v-33.14l14.52,21.74h.26l14.65-21.87v33.28h8.15v-46.4h-8.68l-14.12,21.94-14.12-21.94h-8.68v46.4ZM436.16,344.01h34.73v-7.29h-26.58v-12.4h23.27v-7.36h-23.27v-12.06h26.25v-7.29h-34.4v46.4ZM402.93,344.01h8.15v-38.84h14.78v-7.56h-37.72v7.56h14.78v38.84ZM364.54,344.67c9.74,0,16.57-5.1,16.57-13.85v-.13c0-7.76-5.1-11.07-14.85-13.59-8.95-2.12-11.07-3.71-11.07-7.29v-.13c0-3.11,2.78-5.5,7.56-5.5,4.24,0,8.35,1.66,12.59,4.77l4.37-6.16c-4.77-3.78-10.01-5.83-16.84-5.83-9.21,0-15.84,5.5-15.84,13.46v.13c0,8.49,5.57,11.53,15.45,13.85,8.62,1.92,10.47,3.84,10.47,7.09v.13c0,3.45-3.18,5.83-8.22,5.83-5.77,0-10.14-2.12-14.65-6.03l-4.9,5.83c5.57,5.04,12.2,7.42,19.36,7.42ZM315,344.01h8.22v-18.49l18.43-27.91h-9.35l-13.13,20.48-12.93-20.48h-9.68l18.43,28.11v18.3ZM275.34,344.67c9.74,0,16.57-5.1,16.57-13.85v-.13c0-7.76-5.1-11.07-14.85-13.59-8.95-2.12-11.07-3.71-11.07-7.29v-.13c0-3.11,2.78-5.5,7.56-5.5,4.24,0,8.35,1.66,12.59,4.77l4.37-6.16c-4.77-3.78-10.01-5.83-16.84-5.83-9.21,0-15.84,5.5-15.84,13.46v.13c0,8.49,5.57,11.53,15.45,13.85,8.62,1.92,10.47,3.84,10.47,7.09v.13c0,3.45-3.18,5.83-8.22,5.83-5.77,0-10.14-2.12-14.65-6.03l-4.9,5.83c5.57,5.04,12.2,7.42,19.36,7.42ZM193,344.01h34.73v-7.29h-26.58v-12.4h23.27v-7.36h-23.27v-12.06h26.25v-7.29h-34.4v46.4ZM140.81,344.01h8.15v-19.55h22.14v19.55h8.15v-46.4h-8.15v19.29h-22.14v-19.29h-8.15v46.4ZM107.58,344.01h8.15v-38.84h14.78v-7.56h-37.72v7.56h14.78v38.84Z"/>
  <path class="cls-4" d="M435.77,391.95c4.04,0,7.23-1.63,9.51-3.55v-9.58h-9.71v3.52h5.83v4.24c-1.4,1.04-3.32,1.73-5.51,1.73-4.66,0-7.76-3.45-7.76-8.15v-.07c0-4.37,3.23-8.02,7.4-8.02,2.87,0,4.63.91,6.39,2.41l2.54-3.03c-2.35-1.99-4.82-3.1-8.76-3.1-6.91,0-11.76,5.41-11.76,11.8v.07c0,6.65,4.69,11.73,11.83,11.73M390.39,391.56h3.94v-16.23l12.58,16.23h3.36v-22.81h-3.94v15.77l-12.22-15.77h-3.71v22.81ZM371.47,391.56h4.01v-22.81h-4.01v22.81ZM342.28,391.56h16v-3.65h-11.99v-19.16h-4.01v22.81ZM313.33,391.56h16v-3.65h-11.99v-19.16h-4.01v22.81ZM282.68,391.56h17.07v-3.58h-13.07v-6.09h11.44v-3.62h-11.44v-5.93h12.9v-3.58h-16.91v22.81ZM260.99,391.89c4.79,0,8.15-2.51,8.15-6.81v-.07c0-3.81-2.51-5.44-7.3-6.68-4.4-1.04-5.44-1.82-5.44-3.58v-.07c0-1.53,1.37-2.7,3.71-2.7,2.09,0,4.11.81,6.19,2.35l2.15-3.03c-2.35-1.86-4.92-2.87-8.28-2.87-4.53,0-7.79,2.7-7.79,6.61v.07c0,4.17,2.74,5.67,7.59,6.81,4.24.95,5.15,1.89,5.15,3.49v.07c0,1.69-1.56,2.87-4.04,2.87-2.83,0-4.98-1.04-7.2-2.96l-2.41,2.87c2.74,2.48,5.99,3.65,9.51,3.65ZM213.03,391.56h4.01v-9.29h11.5v-3.65h-11.5v-6.22h12.97v-3.65h-16.98v22.81ZM187.46,388.24c-4.56,0-7.75-3.65-7.75-8.08v-.07c0-4.43,3.16-8.02,7.69-8.02s7.75,3.65,7.75,8.08v.07c0,4.43-3.16,8.02-7.69,8.02ZM187.4,391.95c7,0,11.96-5.41,11.96-11.79v-.07c0-6.42-4.89-11.73-11.89-11.73s-11.96,5.41-11.96,11.8v.07c0,6.42,4.89,11.73,11.89,11.73Z"/>
</svg>